<svg width="252" height="45" viewBox="0 0 252 45" fill="none" xmlns="http://www.w3.org/2000/svg">
<path d="M12.0007 2.46539C12.8824 2.46539 13.8997 2.53346 15.0487 2.66202C16.2057 2.79436 17.2869 3.03636 18.2882 3.38802C19.2976 3.73211 20.1474 4.18208 20.8416 4.73414C21.5437 5.27864 21.8948 5.95549 21.8948 6.76089C21.8948 7.24489 21.7512 7.65327 21.464 7.98602C21.1767 8.3112 20.7179 8.47002 20.0915 8.47002C19.6208 8.47002 19.142 8.37927 18.6553 8.19777C18.1646 8.01627 17.61 7.83099 16.9956 7.63814C16.3772 7.44908 15.6631 7.26002 14.8572 7.07852C14.0593 6.89702 13.1217 6.80627 12.0485 6.80627C9.97396 6.80627 8.43398 7.1617 7.43658 7.86502C6.44717 8.56077 5.95246 9.52498 5.95246 10.7539C5.95246 11.5933 6.16789 12.2929 6.60675 12.8563C7.05358 13.4235 7.64404 13.9075 8.37812 14.3083C9.12019 14.7129 9.958 15.0494 10.8836 15.3216C11.8171 15.5939 12.7746 15.8472 13.7561 16.0779C14.8612 16.3501 15.9583 16.6829 17.0435 17.0761C18.1287 17.4618 19.0941 17.9647 19.9479 18.5886C20.7977 19.2163 21.4839 20.0066 22.0065 20.9633C22.5252 21.9237 22.7885 23.1337 22.7885 24.5933C22.7885 26.1171 22.4853 27.4821 21.8789 28.6921C21.2804 29.9021 20.4626 30.9382 19.4213 31.7928C18.388 32.6398 17.1432 33.2977 15.687 33.759C14.2388 34.2203 12.6629 34.4548 10.9634 34.4548C10.0139 34.4548 8.90874 34.3678 7.64404 34.1976C6.38732 34.0388 5.19045 33.7552 4.05342 33.3506C2.92436 32.9498 1.96686 32.4129 1.18092 31.7474C0.390979 31.0743 0 30.2424 0 29.2518C0 28.6581 0.163573 28.1854 0.494708 27.83C0.821855 27.467 1.32454 27.2855 1.99479 27.2855C2.52541 27.2855 2.96027 27.3838 3.30337 27.5729C3.65446 27.7657 3.95767 27.9813 4.213 28.2233C5.15853 29.0022 6.22774 29.524 7.42062 29.7963C8.62149 30.0609 9.85028 30.1895 11.107 30.1895C11.8291 30.1895 12.5911 30.1404 13.389 30.0383C14.1949 29.9399 14.929 29.7206 15.5913 29.3879C16.2615 29.0551 16.8121 28.5863 17.251 27.9813C17.6978 27.3687 17.9212 26.5368 17.9212 25.4856C17.9212 24.5403 17.7217 23.7576 17.3307 23.1413C16.9358 22.5287 16.4052 22.0144 15.7349 21.5985C15.0726 21.175 14.2907 20.8347 13.389 20.57C12.4954 20.2978 11.5299 20.0255 10.5006 19.7533C9.32764 19.4621 8.17466 19.1331 7.03762 18.7701C5.90857 18.4071 4.9032 17.9231 4.0215 17.3181C3.13581 16.7056 2.41769 15.9266 1.86712 14.9889C1.31257 14.0436 1.03729 12.8374 1.03729 11.374C1.03729 9.91445 1.31656 8.63261 1.88308 7.53227C2.45758 6.42436 3.23156 5.49796 4.213 4.74927C5.19045 4.00436 6.34344 3.44096 7.67596 3.05527C9.01646 2.66202 10.4567 2.46539 12.0007 2.46539Z" fill="#0097FF"/>
<path d="M28.3538 31.3088C28.29 30.2122 28.2341 28.9493 28.1942 27.5275C28.1504 26.1058 28.1304 24.5479 28.1304 22.8539C28.1304 20.7288 28.1464 18.9138 28.1783 17.4089C28.2102 15.8964 28.294 14.6561 28.4336 13.6881C28.5693 12.7201 28.7927 12.0055 29.1039 11.5404C29.423 11.0791 29.8699 10.8446 30.4444 10.8446C30.975 10.8446 31.4418 11.0261 31.8487 11.3891C32.2636 11.7446 32.503 12.5159 32.5668 13.7033C32.7583 16.8417 32.8541 19.8743 32.8541 22.8085C32.8541 24.3021 32.8222 25.6974 32.7583 26.9981C32.6945 28.2913 32.6307 29.7131 32.5668 31.2634C32.5349 31.9818 32.4591 32.5339 32.3434 32.9271C32.2357 33.3128 32.0881 33.6078 31.8966 33.8195C31.7131 34.0313 31.5016 34.156 31.2582 34.1976C31.0229 34.2468 30.7516 34.2733 30.4444 34.2733C29.8699 34.2733 29.3911 34.088 29.0081 33.7136C28.6331 33.3431 28.4177 32.5414 28.3538 31.3088ZM30.4922 2.73764C31.2144 2.73764 31.8806 3.00611 32.487 3.53927C33.1014 4.0762 33.4126 4.71523 33.4126 5.46014C33.4126 6.17858 33.0974 6.7987 32.4711 7.32051C31.8407 7.84611 31.1346 8.10701 30.3486 8.10701C29.6864 8.10701 29.064 7.84611 28.4815 7.32051C27.895 6.7987 27.6038 6.14833 27.6038 5.36939C27.6038 4.65473 27.895 4.03839 28.4815 3.52414C29.064 3.00233 29.7342 2.73764 30.4922 2.73764Z" fill="#0097FF"/>
<path d="M49.8235 15.004C48.6505 15.004 47.5973 15.1855 46.6637 15.5485C45.7382 15.904 44.6929 16.4371 43.5359 17.1518C43.5359 17.787 43.5359 18.7096 43.5359 19.9196C43.5359 21.1221 43.5199 22.4304 43.488 23.8521C43.4561 25.2739 43.4242 26.673 43.3923 28.0418C43.3604 29.4144 43.2965 30.5639 43.2008 31.4903C43.1369 32.0877 43.0611 32.5604 42.9774 32.912C42.9016 33.2561 42.7938 33.517 42.6582 33.6985C42.5186 33.8725 42.3271 33.9821 42.0837 34.0313C41.8483 34.0729 41.5451 34.0918 41.1741 34.0918C40.7911 34.0918 40.4799 34.0729 40.2485 34.0313C40.0131 33.9821 39.8176 33.8762 39.658 33.7136C39.4984 33.5548 39.3708 33.3053 39.275 32.9725C39.1793 32.6398 39.0995 32.1936 39.0357 31.6264C38.9718 31.0932 38.916 30.3786 38.8761 29.4786C38.8322 28.5825 38.7963 27.6031 38.7644 26.5444C38.7324 25.4856 38.7045 24.4118 38.6846 23.3228C38.6726 22.2338 38.6686 21.228 38.6686 20.2978C38.6686 18.7777 38.6886 17.5375 38.7324 16.577C38.7843 15.6204 38.8681 14.7696 38.9878 14.0209C39.1793 12.7731 39.4266 11.979 39.7378 11.6463C40.057 11.3135 40.4879 11.1471 41.0304 11.1471C41.8164 11.1471 42.4068 11.3589 42.8018 11.7824C43.1928 12.1983 43.4402 12.8827 43.5359 13.8394C44.6929 12.8827 45.9456 12.1227 47.2861 11.5555C48.6266 10.9921 50.003 10.7085 51.4193 10.7085C52.7798 10.7085 54.0205 11.0072 55.1376 11.6009C56.2547 12.1983 57.1723 13.1701 57.8984 14.52C58.3452 15.3292 58.6724 16.214 58.8878 17.182C59.1112 18.15 59.2708 19.1747 59.3666 20.2524C59.3985 20.7288 59.4304 21.1977 59.4623 21.659C59.4942 22.1241 59.5142 22.6195 59.5262 23.1413C59.5461 23.6669 59.5581 24.2567 59.5581 24.9109C59.5581 25.5688 59.5581 26.344 59.5581 27.2401C59.5581 28.2006 59.5421 29.0967 59.5102 29.9324C59.4783 30.7605 59.3865 31.4827 59.2389 32.0953C59.0993 32.7116 58.8559 33.1918 58.5048 33.5321C58.1617 33.8762 57.6949 34.0464 57.1005 34.0464C55.6523 34.0464 54.8982 33.3922 54.8344 32.0801C54.8344 31.9894 54.8344 31.6113 54.8344 30.9458C54.8344 30.2727 54.8224 29.4862 54.8025 28.5863C54.7905 27.6901 54.7746 26.7788 54.7546 25.8486C54.7426 24.9222 54.7227 24.1622 54.6908 23.5648C54.6589 23.0921 54.615 22.5779 54.5631 22.022C54.5192 21.47 54.4554 20.9103 54.3716 20.3431C54.2958 19.7684 54.1961 19.2239 54.0684 18.7096C53.9407 18.1878 53.7851 17.7114 53.6056 17.2879C53.1588 16.3123 52.6042 15.6846 51.9459 15.4124C51.2837 15.1401 50.5775 15.004 49.8235 15.004Z" fill="#0097FF"/>
<path d="M74.3466 40.2325C75.8227 40.2325 77.0755 39.9527 78.0968 39.4006C79.1261 38.8448 79.9559 38.0545 80.5863 37.026C81.2127 35.9975 81.6595 34.761 81.9268 33.3204C82.2021 31.8684 82.3417 30.2311 82.3417 28.4048C82.0545 29.3652 81.6396 30.1706 81.097 30.8248C80.5624 31.4827 79.94 32.0121 79.2298 32.4129C78.5277 32.8175 77.7337 33.1086 76.8521 33.2901C75.9664 33.4641 75.0527 33.5473 74.1072 33.5473C72.659 33.5473 71.2866 33.3582 69.99 32.9725C68.7013 32.5793 67.5803 31.9705 66.6228 31.1424C65.6653 30.3067 64.8993 29.2366 64.3248 27.9359C63.7582 26.6351 63.479 25.0735 63.479 23.2471C63.479 21.4851 63.7542 19.8667 64.3088 18.392C64.8594 16.9098 65.6653 15.6355 66.7185 14.5654C67.7718 13.4877 69.0524 12.6521 70.5645 12.0546C72.0725 11.4496 73.808 11.1471 75.7669 11.1471C76.8082 11.1471 77.7298 11.2379 78.5277 11.4194C79.3336 11.6009 80.0517 11.8429 80.6821 12.1454C81.3084 12.4403 81.867 12.7958 82.3577 13.2193C82.8444 13.6352 83.2992 14.0814 83.7141 14.5654C84.903 15.9985 85.7648 17.6925 86.2994 19.6474C86.842 21.6061 87.1133 23.9542 87.1133 26.6956C87.1133 28.7337 86.9297 30.8096 86.5707 32.9271C86.2076 35.0446 85.5533 36.958 84.6078 38.6746C83.6583 40.3989 82.3497 41.8055 80.6821 42.8945C79.0104 43.9835 76.868 44.528 74.2508 44.528C73.7801 44.528 73.2534 44.5015 72.671 44.4524C72.0845 44.4108 71.4821 44.3465 70.8677 44.2558C70.2613 44.165 69.6548 44.0365 69.0484 43.8776C68.45 43.715 67.9034 43.4995 67.4047 43.2273C66.7744 42.9021 66.2717 42.592 65.8887 42.2895C65.5057 41.987 65.3142 41.4917 65.3142 40.8073C65.3142 40.2401 65.4458 39.7258 65.7131 39.2645C65.9884 38.7994 66.4552 38.5688 67.1175 38.5688C67.4366 38.5688 67.7797 38.6595 68.1548 38.841C68.5378 39.0225 69.0005 39.2078 69.5431 39.4006C70.0937 39.5897 70.76 39.7788 71.5379 39.9603C72.3119 40.1418 73.2495 40.2325 74.3466 40.2325ZM74.586 29.4786C75.8187 29.4786 76.868 29.2631 77.7298 28.8283C78.5915 28.3972 79.2977 27.8225 79.8522 27.104C80.4028 26.3894 80.8137 25.584 81.081 24.684C81.3443 23.7879 81.48 22.8917 81.48 21.9918C81.48 21.2469 81.3762 20.4944 81.1768 19.7381C80.9733 18.9743 80.6342 18.2786 80.1554 17.6509C79.6847 17.027 79.0423 16.5241 78.2245 16.1384C77.4026 15.7451 76.3813 15.5485 75.1605 15.5485C73.0739 15.5485 71.3943 16.1497 70.1176 17.3484C68.841 18.5395 68.2026 20.2978 68.2026 22.627C68.2026 24.805 68.7652 26.4952 69.8942 27.6939C71.0312 28.885 72.5952 29.4786 74.586 29.4786Z" fill="#0097FF"/>
<path d="M91.6878 31.4903C91.6559 30.4239 91.624 29.1724 91.5921 27.7393C91.5682 26.2986 91.5482 24.7407 91.5283 23.0656C91.5163 21.3943 91.5003 19.6323 91.4804 17.787C91.4684 15.9342 91.4644 14.036 91.4644 12.1C91.4644 9.97494 91.4804 8.1486 91.5123 6.62475C91.5442 5.10469 91.628 3.85309 91.7676 2.87375C91.9033 1.88684 92.1267 1.16084 92.4379 0.69575C92.7571 0.234438 93.2039 0 93.7784 0C94.309 0 94.7758 0.166375 95.1827 0.499125C95.5977 0.824312 95.837 1.58434 95.9009 2.783C96.0285 4.93075 96.1083 7.16547 96.1402 9.48338C96.1722 11.7937 96.1881 14.0663 96.1881 16.3048C96.1881 17.6471 96.1881 18.9365 96.1881 20.1768C96.1881 21.417 96.1722 22.6421 96.1402 23.8521C96.1083 25.0621 96.0764 26.2986 96.0445 27.5578C96.0126 28.8094 95.9647 30.1063 95.9009 31.4449C95.8689 32.1633 95.7931 32.7154 95.6774 33.1086C95.5697 33.4943 95.4221 33.7893 95.2306 34.001C95.0471 34.2128 94.8356 34.3375 94.5923 34.3791C94.3569 34.4283 94.0856 34.4548 93.7784 34.4548C93.2039 34.4548 92.7251 34.2657 92.3421 33.8951C91.9671 33.5246 91.7517 32.7229 91.6878 31.4903Z" fill="#0097FF"/>
<path d="M112.919 25.8486C111.81 25.8486 110.653 25.7692 109.44 25.6066C108.228 25.4365 106.911 25.0848 105.499 24.5479C105.786 26.3742 106.576 27.7506 107.877 28.677C109.185 29.5959 111.068 30.0534 113.526 30.0534C114.407 30.0534 115.205 30.0042 115.92 29.9021C116.63 29.8038 117.252 29.6866 117.787 29.5543C118.317 29.4144 118.784 29.2934 119.191 29.1913C119.606 29.0816 119.989 29.0249 120.34 29.0249C120.775 29.0249 121.194 29.1572 121.601 29.4181C122.016 29.6715 122.223 30.095 122.223 30.6886C122.223 31.4373 121.896 32.0499 121.25 32.5339C120.611 33.0103 119.821 33.3885 118.888 33.6683C117.962 33.9519 116.977 34.1409 115.935 34.243C114.902 34.3527 113.993 34.4094 113.207 34.4094C111.343 34.4094 109.632 34.1712 108.068 33.6985C106.512 33.2145 105.168 32.4885 104.031 31.5205C102.89 30.545 102.008 29.3387 101.381 27.9056C100.751 26.4763 100.44 24.8012 100.44 22.8841C100.44 21.0389 100.743 19.4016 101.35 17.9685C101.964 16.5392 102.81 15.3292 103.887 14.3385C104.96 13.3516 106.225 12.6067 107.685 12.1C109.153 11.5858 110.737 11.3286 112.441 11.3286C113.769 11.3286 115.058 11.495 116.303 11.8278C117.547 12.153 118.648 12.6445 119.606 13.31C120.563 13.968 121.333 14.7923 121.92 15.7905C122.502 16.7888 122.798 17.9647 122.798 19.3146C122.798 20.5057 122.558 21.5191 122.079 22.3548C121.609 23.1942 120.938 23.8673 120.069 24.3815C119.207 24.8882 118.17 25.2588 116.957 25.5008C115.744 25.7352 114.395 25.8486 112.919 25.8486ZM112.584 15.4578C111.73 15.4578 110.913 15.5561 110.127 15.7451C109.337 15.938 108.619 16.2518 107.972 16.6829C107.334 17.1177 106.791 17.6887 106.345 18.392C105.906 19.0878 105.61 19.9612 105.451 21.0086C106.64 21.5153 107.805 21.867 108.946 22.0674C110.083 22.2602 111.28 22.3548 112.536 22.3548C114.395 22.3548 115.776 22.1392 116.67 21.7044C117.571 21.2733 118.026 20.4906 118.026 19.36C118.026 18.3126 117.603 17.4013 116.765 16.6224C115.935 15.8472 114.539 15.4578 112.584 15.4578Z" fill="#0097FF"/>
<path d="M148.077 25.8486C146.968 25.8486 145.811 25.7692 144.598 25.6066C143.386 25.4365 142.069 25.0848 140.657 24.5479C140.944 26.3742 141.734 27.7506 143.035 28.677C144.343 29.5959 146.226 30.0534 148.684 30.0534C149.565 30.0534 150.363 30.0042 151.078 29.9021C151.788 29.8038 152.41 29.6866 152.945 29.5543C153.475 29.4144 153.942 29.2934 154.349 29.1913C154.764 29.0816 155.147 29.0249 155.498 29.0249C155.933 29.0249 156.352 29.1572 156.759 29.4181C157.174 29.6715 157.381 30.095 157.381 30.6886C157.381 31.4373 157.054 32.0499 156.408 32.5339C155.769 33.0103 154.979 33.3885 154.046 33.6683C153.12 33.9519 152.135 34.1409 151.093 34.243C150.06 34.3527 149.151 34.4094 148.365 34.4094C146.501 34.4094 144.79 34.1712 143.226 33.6985C141.67 33.2145 140.326 32.4885 139.189 31.5205C138.048 30.545 137.166 29.3387 136.54 27.9056C135.909 26.4763 135.598 24.8012 135.598 22.8841C135.598 21.0389 135.901 19.4016 136.508 17.9685C137.122 16.5392 137.968 15.3292 139.045 14.3385C140.118 13.3516 141.383 12.6067 142.843 12.1C144.311 11.5858 145.895 11.3286 147.599 11.3286C148.927 11.3286 150.216 11.495 151.461 11.8278C152.705 12.153 153.806 12.6445 154.764 13.31C155.721 13.968 156.491 14.7923 157.078 15.7905C157.66 16.7888 157.956 17.9647 157.956 19.3146C157.956 20.5057 157.716 21.5191 157.237 22.3548C156.767 23.1942 156.096 23.8673 155.227 24.3815C154.365 24.8882 153.328 25.2588 152.115 25.5008C150.902 25.7352 149.554 25.8486 148.077 25.8486ZM147.742 15.4578C146.888 15.4578 146.071 15.5561 145.285 15.7451C144.495 15.938 143.777 16.2518 143.13 16.6829C142.492 17.1177 141.949 17.6887 141.503 18.392C141.064 19.0878 140.768 19.9612 140.609 21.0086C141.798 21.5153 142.963 21.867 144.104 22.0674C145.241 22.2602 146.438 22.3548 147.694 22.3548C149.554 22.3548 150.934 22.1392 151.828 21.7044C152.729 21.2733 153.184 20.4906 153.184 19.36C153.184 18.3126 152.761 17.4013 151.923 16.6224C151.093 15.8472 149.697 15.4578 147.742 15.4578Z" fill="#0097FF"/>
<path d="M173.172 32.307C172.478 33.6796 171.644 34.364 170.667 34.364C169.749 34.364 168.947 33.6796 168.257 32.307C168.002 31.823 167.715 31.218 167.396 30.492C167.084 29.7584 166.757 28.9644 166.406 28.1174C166.063 27.2628 165.704 26.3856 165.321 25.4856C164.946 24.5895 164.571 23.7538 164.188 22.9749C162.931 20.3545 161.954 18.2975 161.252 16.8039C160.557 15.3141 160.214 14.1192 160.214 13.2193C160.214 12.705 160.378 12.2891 160.709 11.9639C161.048 11.6311 161.499 11.4648 162.065 11.4648C162.417 11.4648 162.788 11.6009 163.183 11.8731C163.574 12.1454 163.972 12.6559 164.379 13.4008C165.58 15.6695 166.693 17.9799 167.715 20.328C168.736 22.6686 169.733 25.047 170.715 27.467C171.692 25.047 172.694 22.6686 173.715 20.328C174.736 17.9799 175.845 15.6695 177.05 13.4008C177.453 12.6559 177.852 12.1454 178.247 11.8731C178.638 11.6009 179.013 11.4648 179.364 11.4648C179.927 11.4648 180.374 11.6311 180.705 11.9639C181.044 12.2891 181.215 12.705 181.215 13.2193C181.215 14.1192 180.864 15.3141 180.162 16.8039C179.468 18.2975 178.495 20.3545 177.242 22.9749C176.859 23.7538 176.476 24.5895 176.093 25.4856C175.718 26.3856 175.359 27.2628 175.008 28.1174C174.665 28.9644 174.337 29.7584 174.018 30.492C173.707 31.218 173.428 31.823 173.172 32.307Z" fill="#0097FF"/>
<path d="M196.24 25.8486C195.131 25.8486 193.974 25.7692 192.761 25.6066C191.548 25.4365 190.232 25.0848 188.819 24.5479C189.107 26.3742 189.897 27.7506 191.197 28.677C192.506 29.5959 194.389 30.0534 196.846 30.0534C197.728 30.0534 198.526 30.0042 199.24 29.9021C199.95 29.8038 200.573 29.6866 201.107 29.5543C201.638 29.4144 202.105 29.2934 202.512 29.1913C202.927 29.0816 203.31 29.0249 203.661 29.0249C204.096 29.0249 204.514 29.1572 204.921 29.4181C205.336 29.6715 205.544 30.095 205.544 30.6886C205.544 31.4373 205.217 32.0499 204.57 32.5339C203.932 33.0103 203.142 33.3885 202.208 33.6683C201.283 33.9519 200.297 34.1409 199.256 34.243C198.223 34.3527 197.313 34.4094 196.527 34.4094C194.664 34.4094 192.953 34.1712 191.389 33.6985C189.833 33.2145 188.488 32.4885 187.351 31.5205C186.21 30.545 185.329 29.3387 184.702 27.9056C184.072 26.4763 183.761 24.8012 183.761 22.8841C183.761 21.0389 184.064 19.4016 184.67 17.9685C185.285 16.5392 186.13 15.3292 187.208 14.3385C188.281 13.3516 189.546 12.6067 191.006 12.1C192.474 11.5858 194.058 11.3286 195.761 11.3286C197.09 11.3286 198.378 11.495 199.623 11.8278C200.868 12.153 201.969 12.6445 202.927 13.31C203.884 13.968 204.654 14.7923 205.241 15.7905C205.823 16.7888 206.118 17.9647 206.118 19.3146C206.118 20.5057 205.879 21.5191 205.4 22.3548C204.929 23.1942 204.259 23.8673 203.389 24.3815C202.528 24.8882 201.49 25.2588 200.278 25.5008C199.065 25.7352 197.716 25.8486 196.24 25.8486ZM195.905 15.4578C195.051 15.4578 194.233 15.5561 193.447 15.7451C192.657 15.938 191.939 16.2518 191.293 16.6829C190.655 17.1177 190.112 17.6887 189.665 18.392C189.226 19.0878 188.931 19.9612 188.772 21.0086C189.96 21.5153 191.125 21.867 192.266 22.0674C193.403 22.2602 194.6 22.3548 195.857 22.3548C197.716 22.3548 199.097 22.1392 199.99 21.7044C200.892 21.2733 201.347 20.4906 201.347 19.36C201.347 18.3126 200.924 17.4013 200.086 16.6224C199.256 15.8472 197.86 15.4578 195.905 15.4578Z" fill="#0097FF"/>
<path d="M221.718 15.004C220.545 15.004 219.492 15.1855 218.558 15.5485C217.633 15.904 216.588 16.4371 215.431 17.1518C215.431 17.787 215.431 18.7096 215.431 19.9196C215.431 21.1221 215.415 22.4304 215.383 23.8521C215.351 25.2739 215.319 26.673 215.287 28.0418C215.255 29.4144 215.191 30.5639 215.095 31.4903C215.032 32.0877 214.956 32.5604 214.872 32.912C214.796 33.2561 214.688 33.517 214.553 33.6985C214.413 33.8725 214.222 33.9821 213.978 34.0313C213.743 34.0729 213.44 34.0918 213.069 34.0918C212.686 34.0918 212.375 34.0729 212.143 34.0313C211.908 33.9821 211.712 33.8762 211.553 33.7136C211.393 33.5548 211.265 33.3053 211.17 32.9725C211.074 32.6398 210.994 32.1936 210.93 31.6264C210.866 31.0932 210.811 30.3786 210.771 29.4786C210.727 28.5825 210.691 27.6031 210.659 26.5444C210.627 25.4856 210.599 24.4118 210.579 23.3228C210.567 22.2338 210.563 21.228 210.563 20.2978C210.563 18.7777 210.583 17.5375 210.627 16.577C210.679 15.6204 210.763 14.7696 210.882 14.0209C211.074 12.7731 211.321 11.979 211.632 11.6463C211.952 11.3135 212.382 11.1471 212.925 11.1471C213.711 11.1471 214.301 11.3589 214.696 11.7824C215.087 12.1983 215.335 12.8827 215.431 13.8394C216.588 12.8827 217.84 12.1227 219.181 11.5555C220.521 10.9921 221.898 10.7085 223.314 10.7085C224.674 10.7085 225.915 11.0072 227.032 11.6009C228.149 12.1983 229.067 13.1701 229.793 14.52C230.24 15.3292 230.567 16.214 230.782 17.182C231.006 18.15 231.165 19.1747 231.261 20.2524C231.293 20.7288 231.325 21.1977 231.357 21.659C231.389 22.1241 231.409 22.6195 231.421 23.1413C231.441 23.6669 231.453 24.2567 231.453 24.9109C231.453 25.5688 231.453 26.344 231.453 27.2401C231.453 28.2006 231.437 29.0967 231.405 29.9324C231.373 30.7605 231.281 31.4827 231.134 32.0953C230.994 32.7116 230.751 33.1918 230.399 33.5321C230.056 33.8762 229.59 34.0464 228.995 34.0464C227.547 34.0464 226.793 33.3922 226.729 32.0801C226.729 31.9894 226.729 31.6113 226.729 30.9458C226.729 30.2727 226.717 29.4862 226.697 28.5863C226.685 27.6901 226.669 26.7788 226.649 25.8486C226.637 24.9222 226.617 24.1622 226.585 23.5648C226.554 23.0921 226.51 22.5779 226.458 22.022C226.414 21.47 226.35 20.9103 226.266 20.3431C226.19 19.7684 226.091 19.2239 225.963 18.7096C225.835 18.1878 225.68 17.7114 225.5 17.2879C225.053 16.3123 224.499 15.6846 223.841 15.4124C223.178 15.1401 222.472 15.004 221.718 15.004Z" fill="#0097FF"/>
<path d="M240.991 31.1726C240.903 29.2971 240.851 27.07 240.831 24.4874C240.819 21.8972 240.815 18.963 240.815 15.6846C240.496 15.7149 240.121 15.73 239.698 15.73C239.271 15.73 238.932 15.73 238.677 15.73C238.11 15.73 237.6 15.7149 237.145 15.6846C236.686 15.6544 236.283 15.5636 235.932 15.4124C235.589 15.2611 235.326 15.0456 235.134 14.762C234.943 14.4822 234.847 14.0814 234.847 13.5671C234.847 12.1378 235.984 11.4194 238.262 11.4194C238.601 11.4194 239.02 11.4194 239.523 11.4194C240.033 11.4194 240.464 11.4496 240.815 11.5101C240.815 9.92957 240.839 8.66285 240.895 7.71376C240.959 6.7571 241.075 6.01598 241.246 5.49038C241.426 4.96857 241.665 4.62448 241.964 4.46188C242.26 4.29173 242.651 4.20476 243.129 4.20476C243.628 4.20476 244.031 4.37113 244.342 4.70388C244.661 5.03663 244.905 5.45635 245.076 5.95926C245.256 6.46595 245.368 7.03313 245.411 7.66838C245.463 8.29607 245.491 8.90485 245.491 9.49851C245.491 9.91445 245.479 10.2926 245.459 10.6329C245.447 10.977 245.443 11.2833 245.443 11.5555C245.878 11.4345 246.329 11.3702 246.8 11.3589C247.279 11.34 247.741 11.3286 248.188 11.3286C249.345 11.3286 250.239 11.5026 250.869 11.8429C251.508 12.187 251.827 12.7466 251.827 13.5218C251.827 14.0058 251.715 14.3914 251.492 14.6713C251.268 14.9549 250.973 15.1704 250.614 15.3216C250.251 15.4729 249.824 15.575 249.337 15.6241C248.846 15.6657 248.32 15.6846 247.757 15.6846C247.438 15.6846 247.071 15.6846 246.656 15.6846C246.249 15.6846 245.878 15.6544 245.539 15.5939C245.539 17.1782 245.539 18.6264 245.539 19.9348C245.539 21.2469 245.523 22.506 245.491 23.716C245.459 24.926 245.427 26.1322 245.395 27.3309C245.364 28.522 245.316 29.7925 245.252 31.1424C245.22 31.8608 245.144 32.4129 245.028 32.8061C244.921 33.1918 244.773 33.4868 244.582 33.6985C244.398 33.9027 244.187 34.0275 243.943 34.0766C243.708 34.1144 243.437 34.1371 243.129 34.1371C242.555 34.1371 242.068 33.9518 241.677 33.5775C241.282 33.2069 241.055 32.4053 240.991 31.1726Z" fill="#0097FF"/>
</svg>
