<?xml version="1.0" encoding="UTF-8"?><svg xmlns="http://www.w3.org/2000/svg" xmlns:xlink="http://www.w3.org/1999/xlink" width="375pt" zoomAndPan="magnify" viewBox="0 0 375 374.999991" height="374.999991pt" preserveAspectRatio="xMidYMid meet" version="1.2"><defs><g/><clipPath xml:id="clip1" id="clip1"><path d="M 142 90 L 227 90 L 227 176 L 142 176 Z M 142 90 "/></clipPath><clipPath xml:id="clip2" id="clip2"><path d="M 201.730469 90.417969 C 206.269531 92.230469 210.488281 94.917969 214.011719 98.351562 C 217.546875 101.777344 220.382812 105.914062 222.425781 110.386719 C 224.457031 114.875 225.710938 119.691406 226.261719 124.570312 C 226.8125 129.453125 226.667969 134.410156 225.855469 139.261719 C 225.449219 141.6875 224.871094 144.085938 224.125 146.4375 C 223.371094 148.785156 222.4375 151.078125 221.332031 153.289062 C 219.117188 157.707031 216.183594 161.804688 212.542969 165.214844 C 208.914062 168.628906 204.570312 171.324219 199.847656 172.984375 C 195.128906 174.660156 190.085938 175.300781 185.128906 175.09375 L 185.316406 175.09375 C 180.40625 175.449219 175.386719 174.988281 170.644531 173.492188 C 165.902344 172.011719 161.492188 169.503906 157.761719 166.257812 C 154.019531 163.011719 150.949219 159.066406 148.574219 154.773438 C 146.1875 150.480469 144.527344 145.824219 143.519531 141.046875 C 142.511719 136.269531 142.160156 131.359375 142.496094 126.496094 C 142.832031 121.632812 143.855469 116.800781 145.664062 112.261719 C 147.480469 107.730469 150.082031 103.496094 153.40625 99.914062 C 156.71875 96.328125 160.75 93.429688 165.144531 91.378906 C 165.523438 91.203125 165.976562 91.363281 166.152344 91.742188 C 166.292969 92.046875 166.214844 92.398438 165.984375 92.613281 L 165.816406 92.769531 C 162.25 96.109375 159.417969 99.703125 157.386719 103.507812 C 156.386719 105.425781 155.53125 107.34375 154.894531 109.320312 C 154.726562 109.804688 154.605469 110.320312 154.445312 110.800781 C 154.289062 111.285156 154.175781 111.789062 154.039062 112.277344 C 153.90625 112.769531 153.816406 113.277344 153.699219 113.765625 C 153.59375 114.261719 153.519531 114.769531 153.429688 115.261719 C 153.105469 117.253906 152.890625 119.242188 152.859375 121.234375 C 152.851562 121.734375 152.867188 122.234375 152.855469 122.722656 L 152.875 124.203125 L 152.953125 125.675781 L 153.082031 127.144531 L 153.265625 128.601562 C 153.339844 129.089844 153.429688 129.570312 153.484375 130.050781 L 153.734375 131.484375 L 154.027344 132.902344 L 154.371094 134.304688 L 154.765625 135.6875 L 155.199219 137.050781 L 155.65625 138.390625 C 158.199219 145.492188 162.4375 151.542969 167.363281 155.144531 C 168.597656 156.046875 169.855469 156.820312 171.160156 157.449219 C 172.46875 158.0625 173.792969 158.585938 175.179688 158.941406 C 176.5625 159.296875 177.988281 159.570312 179.480469 159.675781 C 180.96875 159.792969 182.519531 159.8125 184.125 159.679688 L 185.8125 159.652344 C 187.433594 159.710938 188.996094 159.667969 190.492188 159.472656 C 191.984375 159.296875 193.417969 159.003906 194.785156 158.566406 C 196.160156 158.15625 197.476562 157.589844 198.757812 156.90625 C 200.046875 156.238281 201.269531 155.390625 202.476562 154.4375 C 203.675781 153.476562 204.816406 152.367188 205.914062 151.136719 C 206.992188 149.894531 208.023438 148.535156 208.960938 147.058594 C 209.894531 145.578125 210.773438 144.003906 211.523438 142.328125 C 212.300781 140.664062 212.949219 138.90625 213.527344 137.101562 C 214.078125 135.289062 214.574219 133.425781 214.925781 131.515625 C 215.28125 129.605469 215.46875 127.660156 215.621094 125.695312 C 215.757812 123.722656 215.714844 121.742188 215.582031 119.75 C 215.464844 117.753906 215.171875 115.761719 214.738281 113.78125 C 214.335938 111.789062 213.730469 109.832031 212.984375 107.890625 C 212.253906 105.933594 211.292969 104.054688 210.191406 102.183594 C 207.953125 98.46875 204.914062 95.007812 201.136719 91.839844 L 200.960938 91.695312 C 200.640625 91.425781 200.601562 90.949219 200.871094 90.628906 C 201.085938 90.375 201.4375 90.300781 201.730469 90.417969 Z M 201.730469 90.417969 "/></clipPath><clipPath xml:id="clip3" id="clip3"><path d="M 171 129 L 198 129 L 198 157 L 171 157 Z M 171 129 "/></clipPath><clipPath xml:id="clip4" id="clip4"><path d="M 197.039062 142.570312 C 197.039062 143.457031 196.957031 144.335938 196.796875 145.203125 C 196.636719 146.074219 196.398438 146.917969 196.082031 147.734375 C 195.765625 148.554688 195.378906 149.332031 194.921875 150.070312 C 194.464844 150.808594 193.945312 151.488281 193.359375 152.117188 C 192.777344 152.742188 192.144531 153.300781 191.457031 153.792969 C 190.773438 154.285156 190.050781 154.703125 189.289062 155.042969 C 188.527344 155.382812 187.742188 155.636719 186.933594 155.808594 C 186.125 155.984375 185.308594 156.070312 184.484375 156.070312 C 183.660156 156.070312 182.84375 155.984375 182.035156 155.808594 C 181.226562 155.636719 180.441406 155.382812 179.679688 155.042969 C 178.917969 154.703125 178.195312 154.285156 177.511719 153.792969 C 176.824219 153.300781 176.191406 152.742188 175.609375 152.117188 C 175.027344 151.488281 174.503906 150.808594 174.046875 150.070312 C 173.589844 149.332031 173.203125 148.554688 172.886719 147.734375 C 172.570312 146.917969 172.332031 146.074219 172.171875 145.203125 C 172.011719 144.335938 171.933594 143.457031 171.933594 142.570312 C 171.933594 141.683594 172.011719 140.804688 172.171875 139.9375 C 172.332031 139.066406 172.570312 138.222656 172.886719 137.402344 C 173.203125 136.585938 173.589844 135.808594 174.046875 135.070312 C 174.503906 134.332031 175.027344 133.652344 175.609375 133.023438 C 176.191406 132.398438 176.824219 131.835938 177.511719 131.34375 C 178.195312 130.851562 178.917969 130.4375 179.679688 130.097656 C 180.441406 129.757812 181.226562 129.503906 182.035156 129.328125 C 182.84375 129.15625 183.660156 129.070312 184.484375 129.070312 C 185.308594 129.070312 186.125 129.15625 186.933594 129.328125 C 187.742188 129.503906 188.527344 129.757812 189.289062 130.097656 C 190.050781 130.4375 190.773438 130.851562 191.457031 131.34375 C 192.144531 131.835938 192.777344 132.398438 193.359375 133.023438 C 193.945312 133.652344 194.464844 134.332031 194.921875 135.070312 C 195.378906 135.808594 195.765625 136.585938 196.082031 137.402344 C 196.398438 138.222656 196.636719 139.066406 196.796875 139.9375 C 196.957031 140.804688 197.039062 141.683594 197.039062 142.570312 Z M 197.039062 142.570312 "/></clipPath></defs><g xml:id="surface1" id="surface1"><g clip-rule="nonzero" clip-path="url(#clip1)"><g clip-rule="nonzero" clip-path="url(#clip2)"><path style=" stroke:none;fill-rule:nonzero;fill:rgb(0%,59.199524%,100%);fill-opacity:1;" d="M 142.160156 90.300781 L 142.160156 175.449219 L 226.8125 175.449219 L 226.8125 90.300781 Z M 142.160156 90.300781 "/></g></g><g clip-rule="nonzero" clip-path="url(#clip3)"><g clip-rule="nonzero" clip-path="url(#clip4)"><path style=" stroke:none;fill-rule:nonzero;fill:rgb(0%,59.199524%,100%);fill-opacity:1;" d="M 171.933594 129.070312 L 171.933594 156.070312 L 197.039062 156.070312 L 197.039062 129.070312 Z M 171.933594 129.070312 "/></g></g><g style="fill:rgb(0%,59.21936%,100%);fill-opacity:1;"><g transform="translate(62.570435, 229.5358)"><path style="stroke:none;" d="M 14.0625 -32.671875 C 14.925781 -32.671875 15.921875 -32.601562 17.046875 -32.46875 C 18.179688 -32.332031 19.238281 -32.082031 20.21875 -31.71875 C 21.207031 -31.363281 22.039062 -30.898438 22.71875 -30.328125 C 23.40625 -29.765625 23.75 -29.066406 23.75 -28.234375 C 23.75 -27.734375 23.609375 -27.3125 23.328125 -26.96875 C 23.046875 -26.632812 22.597656 -26.46875 21.984375 -26.46875 C 21.523438 -26.46875 21.054688 -26.5625 20.578125 -26.75 C 20.097656 -26.9375 19.554688 -27.128906 18.953125 -27.328125 C 18.347656 -27.523438 17.648438 -27.71875 16.859375 -27.90625 C 16.078125 -28.09375 15.160156 -28.1875 14.109375 -28.1875 C 12.078125 -28.1875 10.570312 -27.820312 9.59375 -27.09375 C 8.625 -26.375 8.140625 -25.378906 8.140625 -24.109375 C 8.140625 -23.242188 8.351562 -22.519531 8.78125 -21.9375 C 9.21875 -21.351562 9.796875 -20.851562 10.515625 -20.4375 C 11.242188 -20.019531 12.0625 -19.671875 12.96875 -19.390625 C 13.882812 -19.109375 14.820312 -18.847656 15.78125 -18.609375 C 16.863281 -18.328125 17.9375 -17.984375 19 -17.578125 C 20.0625 -17.179688 21.007812 -16.660156 21.84375 -16.015625 C 22.675781 -15.367188 23.347656 -14.550781 23.859375 -13.5625 C 24.367188 -12.570312 24.625 -11.320312 24.625 -9.8125 C 24.625 -8.238281 24.328125 -6.828125 23.734375 -5.578125 C 23.148438 -4.328125 22.347656 -3.257812 21.328125 -2.375 C 20.316406 -1.5 19.097656 -0.820312 17.671875 -0.34375 C 16.253906 0.132812 14.710938 0.375 13.046875 0.375 C 12.117188 0.375 11.035156 0.285156 9.796875 0.109375 C 8.566406 -0.0546875 7.394531 -0.347656 6.28125 -0.765625 C 5.175781 -1.179688 4.238281 -1.734375 3.46875 -2.421875 C 2.695312 -3.117188 2.3125 -3.976562 2.3125 -5 C 2.3125 -5.613281 2.472656 -6.101562 2.796875 -6.46875 C 3.117188 -6.84375 3.609375 -7.03125 4.265625 -7.03125 C 4.785156 -7.03125 5.210938 -6.929688 5.546875 -6.734375 C 5.890625 -6.535156 6.1875 -6.3125 6.4375 -6.0625 C 7.363281 -5.257812 8.410156 -4.71875 9.578125 -4.4375 C 10.753906 -4.164062 11.957031 -4.03125 13.1875 -4.03125 C 13.894531 -4.03125 14.640625 -4.082031 15.421875 -4.1875 C 16.210938 -4.289062 16.929688 -4.515625 17.578125 -4.859375 C 18.234375 -5.203125 18.773438 -5.6875 19.203125 -6.3125 C 19.640625 -6.945312 19.859375 -7.804688 19.859375 -8.890625 C 19.859375 -9.867188 19.664062 -10.675781 19.28125 -11.3125 C 18.894531 -11.945312 18.375 -12.476562 17.71875 -12.90625 C 17.070312 -13.34375 16.304688 -13.695312 15.421875 -13.96875 C 14.546875 -14.25 13.601562 -14.53125 12.59375 -14.8125 C 11.445312 -15.113281 10.316406 -15.453125 9.203125 -15.828125 C 8.097656 -16.203125 7.113281 -16.703125 6.25 -17.328125 C 5.382812 -17.960938 4.679688 -18.765625 4.140625 -19.734375 C 3.597656 -20.710938 3.328125 -21.957031 3.328125 -23.46875 C 3.328125 -24.976562 3.601562 -26.300781 4.15625 -27.4375 C 4.71875 -28.582031 5.476562 -29.539062 6.4375 -30.3125 C 7.394531 -31.082031 8.523438 -31.664062 9.828125 -32.0625 C 11.140625 -32.46875 12.550781 -32.671875 14.0625 -32.671875 Z M 14.0625 -32.671875 "/></g></g><g style="fill:rgb(0%,59.21936%,100%);fill-opacity:1;"><g transform="translate(89.503886, 229.5358)"><path style="stroke:none;" d="M 3.140625 -2.875 C 3.078125 -4.007812 3.023438 -5.3125 2.984375 -6.78125 C 2.941406 -8.25 2.921875 -9.859375 2.921875 -11.609375 C 2.921875 -13.804688 2.9375 -15.679688 2.96875 -17.234375 C 3 -18.796875 3.082031 -20.078125 3.21875 -21.078125 C 3.351562 -22.078125 3.570312 -22.816406 3.875 -23.296875 C 4.1875 -23.773438 4.625 -24.015625 5.1875 -24.015625 C 5.707031 -24.015625 6.164062 -23.828125 6.5625 -23.453125 C 6.96875 -23.085938 7.203125 -22.289062 7.265625 -21.0625 C 7.453125 -17.820312 7.546875 -14.6875 7.546875 -11.65625 C 7.546875 -10.113281 7.515625 -8.671875 7.453125 -7.328125 C 7.390625 -5.992188 7.328125 -4.523438 7.265625 -2.921875 C 7.234375 -2.179688 7.160156 -1.609375 7.046875 -1.203125 C 6.941406 -0.804688 6.796875 -0.5 6.609375 -0.28125 C 6.429688 -0.0625 6.222656 0.0664062 5.984375 0.109375 C 5.753906 0.160156 5.488281 0.1875 5.1875 0.1875 C 4.625 0.1875 4.15625 -0.00390625 3.78125 -0.390625 C 3.414062 -0.773438 3.203125 -1.601562 3.140625 -2.875 Z M 5.234375 -32.390625 C 5.941406 -32.390625 6.59375 -32.113281 7.1875 -31.5625 C 7.789062 -31.007812 8.09375 -30.347656 8.09375 -29.578125 C 8.09375 -28.835938 7.785156 -28.195312 7.171875 -27.65625 C 6.554688 -27.113281 5.863281 -26.84375 5.09375 -26.84375 C 4.445312 -26.84375 3.835938 -27.113281 3.265625 -27.65625 C 2.691406 -28.195312 2.40625 -28.867188 2.40625 -29.671875 C 2.40625 -30.410156 2.691406 -31.046875 3.265625 -31.578125 C 3.835938 -32.117188 4.492188 -32.390625 5.234375 -32.390625 Z M 5.234375 -32.390625 "/></g></g><g style="fill:rgb(0%,59.21936%,100%);fill-opacity:1;"><g transform="translate(99.962583, 229.5358)"><path style="stroke:none;" d="M 13.703125 -19.71875 C 12.554688 -19.71875 11.523438 -19.53125 10.609375 -19.15625 C 9.703125 -18.789062 8.679688 -18.238281 7.546875 -17.5 C 7.546875 -16.84375 7.546875 -15.890625 7.546875 -14.640625 C 7.546875 -13.398438 7.53125 -12.046875 7.5 -10.578125 C 7.46875 -9.109375 7.4375 -7.664062 7.40625 -6.25 C 7.375 -4.832031 7.3125 -3.644531 7.21875 -2.6875 C 7.15625 -2.070312 7.082031 -1.582031 7 -1.21875 C 6.925781 -0.863281 6.820312 -0.59375 6.6875 -0.40625 C 6.550781 -0.226562 6.363281 -0.113281 6.125 -0.0625 C 5.894531 -0.0195312 5.597656 0 5.234375 0 C 4.859375 0 4.554688 -0.0195312 4.328125 -0.0625 C 4.097656 -0.113281 3.90625 -0.222656 3.75 -0.390625 C 3.59375 -0.554688 3.46875 -0.8125 3.375 -1.15625 C 3.28125 -1.5 3.203125 -1.960938 3.140625 -2.546875 C 3.078125 -3.097656 3.023438 -3.835938 2.984375 -4.765625 C 2.941406 -5.691406 2.90625 -6.703125 2.875 -7.796875 C 2.84375 -8.890625 2.816406 -10 2.796875 -11.125 C 2.785156 -12.25 2.78125 -13.289062 2.78125 -14.25 C 2.78125 -15.820312 2.800781 -17.101562 2.84375 -18.09375 C 2.894531 -19.082031 2.976562 -19.960938 3.09375 -20.734375 C 3.28125 -22.023438 3.523438 -22.84375 3.828125 -23.1875 C 4.140625 -23.53125 4.5625 -23.703125 5.09375 -23.703125 C 5.863281 -23.703125 6.441406 -23.484375 6.828125 -23.046875 C 7.210938 -22.617188 7.453125 -21.910156 7.546875 -20.921875 C 8.679688 -21.910156 9.90625 -22.695312 11.21875 -23.28125 C 12.53125 -23.863281 13.878906 -24.15625 15.265625 -24.15625 C 16.597656 -24.15625 17.8125 -23.847656 18.90625 -23.234375 C 20 -22.617188 20.898438 -21.613281 21.609375 -20.21875 C 22.046875 -19.382812 22.367188 -18.46875 22.578125 -17.46875 C 22.796875 -16.46875 22.953125 -15.410156 23.046875 -14.296875 C 23.078125 -13.804688 23.109375 -13.320312 23.140625 -12.84375 C 23.171875 -12.363281 23.191406 -11.851562 23.203125 -11.3125 C 23.222656 -10.769531 23.234375 -10.160156 23.234375 -9.484375 C 23.234375 -8.804688 23.234375 -8.003906 23.234375 -7.078125 C 23.234375 -6.085938 23.21875 -5.160156 23.1875 -4.296875 C 23.15625 -3.441406 23.066406 -2.695312 22.921875 -2.0625 C 22.785156 -1.425781 22.546875 -0.929688 22.203125 -0.578125 C 21.867188 -0.222656 21.410156 -0.046875 20.828125 -0.046875 C 19.410156 -0.046875 18.671875 -0.722656 18.609375 -2.078125 C 18.609375 -2.171875 18.609375 -2.5625 18.609375 -3.25 C 18.609375 -3.945312 18.597656 -4.757812 18.578125 -5.6875 C 18.566406 -6.613281 18.550781 -7.554688 18.53125 -8.515625 C 18.519531 -9.472656 18.5 -10.257812 18.46875 -10.875 C 18.4375 -11.363281 18.394531 -11.894531 18.34375 -12.46875 C 18.300781 -13.039062 18.238281 -13.617188 18.15625 -14.203125 C 18.082031 -14.796875 17.984375 -15.359375 17.859375 -15.890625 C 17.734375 -16.429688 17.582031 -16.921875 17.40625 -17.359375 C 16.96875 -18.367188 16.425781 -19.015625 15.78125 -19.296875 C 15.132812 -19.578125 14.441406 -19.71875 13.703125 -19.71875 Z M 13.703125 -19.71875 "/></g></g><g style="fill:rgb(0%,59.21936%,100%);fill-opacity:1;"><g transform="translate(125.739094, 229.5358)"><path style="stroke:none;" d="M 11.9375 6.34375 C 13.382812 6.34375 14.609375 6.054688 15.609375 5.484375 C 16.617188 4.910156 17.429688 4.09375 18.046875 3.03125 C 18.660156 1.96875 19.097656 0.691406 19.359375 -0.796875 C 19.628906 -2.296875 19.765625 -3.988281 19.765625 -5.875 C 19.484375 -4.882812 19.078125 -4.050781 18.546875 -3.375 C 18.023438 -2.695312 17.414062 -2.148438 16.71875 -1.734375 C 16.03125 -1.316406 15.253906 -1.015625 14.390625 -0.828125 C 13.523438 -0.648438 12.628906 -0.5625 11.703125 -0.5625 C 10.285156 -0.5625 8.941406 -0.757812 7.671875 -1.15625 C 6.410156 -1.5625 5.3125 -2.191406 4.375 -3.046875 C 3.4375 -3.910156 2.6875 -5.015625 2.125 -6.359375 C 1.570312 -7.703125 1.296875 -9.316406 1.296875 -11.203125 C 1.296875 -13.023438 1.566406 -14.695312 2.109375 -16.21875 C 2.648438 -17.75 3.4375 -19.066406 4.46875 -20.171875 C 5.5 -21.285156 6.753906 -22.148438 8.234375 -22.765625 C 9.710938 -23.390625 11.410156 -23.703125 13.328125 -23.703125 C 14.347656 -23.703125 15.25 -23.609375 16.03125 -23.421875 C 16.820312 -23.234375 17.523438 -22.984375 18.140625 -22.671875 C 18.753906 -22.367188 19.300781 -22 19.78125 -21.5625 C 20.257812 -21.132812 20.703125 -20.671875 21.109375 -20.171875 C 22.273438 -18.691406 23.117188 -16.941406 23.640625 -14.921875 C 24.171875 -12.898438 24.4375 -10.472656 24.4375 -7.640625 C 24.4375 -5.535156 24.257812 -3.390625 23.90625 -1.203125 C 23.550781 0.984375 22.910156 2.960938 21.984375 4.734375 C 21.054688 6.515625 19.773438 7.96875 18.140625 9.09375 C 16.503906 10.21875 14.40625 10.78125 11.84375 10.78125 C 11.382812 10.78125 10.867188 10.753906 10.296875 10.703125 C 9.722656 10.660156 9.132812 10.59375 8.53125 10.5 C 7.9375 10.40625 7.34375 10.273438 6.75 10.109375 C 6.164062 9.941406 5.628906 9.71875 5.140625 9.4375 C 4.523438 9.101562 4.03125 8.78125 3.65625 8.46875 C 3.28125 8.15625 3.09375 7.644531 3.09375 6.9375 C 3.09375 6.351562 3.222656 5.820312 3.484375 5.34375 C 3.753906 4.863281 4.210938 4.625 4.859375 4.625 C 5.171875 4.625 5.507812 4.71875 5.875 4.90625 C 6.25 5.09375 6.703125 5.285156 7.234375 5.484375 C 7.773438 5.679688 8.425781 5.875 9.1875 6.0625 C 9.945312 6.25 10.863281 6.34375 11.9375 6.34375 Z M 12.171875 -4.765625 C 13.378906 -4.765625 14.40625 -4.988281 15.25 -5.4375 C 16.09375 -5.882812 16.785156 -6.476562 17.328125 -7.21875 C 17.867188 -7.957031 18.269531 -8.789062 18.53125 -9.71875 C 18.789062 -10.644531 18.921875 -11.570312 18.921875 -12.5 C 18.921875 -13.269531 18.820312 -14.046875 18.625 -14.828125 C 18.425781 -15.617188 18.09375 -16.335938 17.625 -16.984375 C 17.164062 -17.628906 16.535156 -18.148438 15.734375 -18.546875 C 14.929688 -18.953125 13.929688 -19.15625 12.734375 -19.15625 C 10.691406 -19.15625 9.046875 -18.535156 7.796875 -17.296875 C 6.546875 -16.066406 5.921875 -14.25 5.921875 -11.84375 C 5.921875 -9.59375 6.472656 -7.847656 7.578125 -6.609375 C 8.691406 -5.378906 10.222656 -4.765625 12.171875 -4.765625 Z M 12.171875 -4.765625 "/></g></g><g style="fill:rgb(0%,59.21936%,100%);fill-opacity:1;"><g transform="translate(151.561884, 229.5358)"><path style="stroke:none;" d="M 3.09375 -2.6875 C 3.0625 -3.789062 3.03125 -5.082031 3 -6.5625 C 2.976562 -8.050781 2.957031 -9.660156 2.9375 -11.390625 C 2.925781 -13.117188 2.910156 -14.9375 2.890625 -16.84375 C 2.878906 -18.757812 2.875 -20.71875 2.875 -22.71875 C 2.875 -24.914062 2.890625 -26.800781 2.921875 -28.375 C 2.953125 -29.945312 3.035156 -31.238281 3.171875 -32.25 C 3.304688 -33.269531 3.523438 -34.019531 3.828125 -34.5 C 4.140625 -34.976562 4.578125 -35.21875 5.140625 -35.21875 C 5.660156 -35.21875 6.117188 -35.046875 6.515625 -34.703125 C 6.921875 -34.367188 7.15625 -33.582031 7.21875 -32.34375 C 7.34375 -30.125 7.421875 -27.816406 7.453125 -25.421875 C 7.484375 -23.035156 7.5 -20.6875 7.5 -18.375 C 7.5 -16.988281 7.5 -15.65625 7.5 -14.375 C 7.5 -13.09375 7.484375 -11.828125 7.453125 -10.578125 C 7.421875 -9.328125 7.390625 -8.050781 7.359375 -6.75 C 7.328125 -5.457031 7.28125 -4.117188 7.21875 -2.734375 C 7.1875 -1.992188 7.113281 -1.421875 7 -1.015625 C 6.894531 -0.617188 6.75 -0.3125 6.5625 -0.09375 C 6.382812 0.125 6.175781 0.253906 5.9375 0.296875 C 5.707031 0.347656 5.441406 0.375 5.140625 0.375 C 4.578125 0.375 4.109375 0.179688 3.734375 -0.203125 C 3.367188 -0.585938 3.15625 -1.414062 3.09375 -2.6875 Z M 3.09375 -2.6875 "/></g></g><g style="fill:rgb(0%,59.21936%,100%);fill-opacity:1;"><g transform="translate(161.928022, 229.5358)"><path style="stroke:none;" d="M 13.515625 -8.515625 C 12.429688 -8.515625 11.296875 -8.597656 10.109375 -8.765625 C 8.921875 -8.941406 7.632812 -9.304688 6.25 -9.859375 C 6.53125 -7.972656 7.304688 -6.550781 8.578125 -5.59375 C 9.859375 -4.644531 11.703125 -4.171875 14.109375 -4.171875 C 14.972656 -4.171875 15.753906 -4.222656 16.453125 -4.328125 C 17.148438 -4.429688 17.757812 -4.550781 18.28125 -4.6875 C 18.800781 -4.832031 19.257812 -4.957031 19.65625 -5.0625 C 20.0625 -5.175781 20.4375 -5.234375 20.78125 -5.234375 C 21.207031 -5.234375 21.617188 -5.097656 22.015625 -4.828125 C 22.421875 -4.566406 22.625 -4.128906 22.625 -3.515625 C 22.625 -2.742188 22.304688 -2.109375 21.671875 -1.609375 C 21.046875 -1.117188 20.273438 -0.726562 19.359375 -0.4375 C 18.453125 -0.144531 17.488281 0.0507812 16.46875 0.15625 C 15.457031 0.269531 14.566406 0.328125 13.796875 0.328125 C 11.972656 0.328125 10.296875 0.0820312 8.765625 -0.40625 C 7.242188 -0.90625 5.925781 -1.65625 4.8125 -2.65625 C 3.695312 -3.664062 2.832031 -4.910156 2.21875 -6.390625 C 1.601562 -7.867188 1.296875 -9.597656 1.296875 -11.578125 C 1.296875 -13.484375 1.59375 -15.175781 2.1875 -16.65625 C 2.789062 -18.132812 3.617188 -19.382812 4.671875 -20.40625 C 5.722656 -21.425781 6.960938 -22.195312 8.390625 -22.71875 C 9.828125 -23.25 11.378906 -23.515625 13.046875 -23.515625 C 14.347656 -23.515625 15.609375 -23.34375 16.828125 -23 C 18.046875 -22.664062 19.125 -22.15625 20.0625 -21.46875 C 21 -20.789062 21.753906 -19.9375 22.328125 -18.90625 C 22.898438 -17.875 23.1875 -16.660156 23.1875 -15.265625 C 23.1875 -14.035156 22.953125 -12.988281 22.484375 -12.125 C 22.023438 -11.257812 21.367188 -10.5625 20.515625 -10.03125 C 19.671875 -9.507812 18.65625 -9.125 17.46875 -8.875 C 16.28125 -8.632812 14.960938 -8.515625 13.515625 -8.515625 Z M 13.1875 -19.25 C 12.351562 -19.25 11.550781 -19.148438 10.78125 -18.953125 C 10.007812 -18.753906 9.304688 -18.429688 8.671875 -17.984375 C 8.046875 -17.535156 7.515625 -16.945312 7.078125 -16.21875 C 6.648438 -15.5 6.359375 -14.597656 6.203125 -13.515625 C 7.367188 -12.992188 8.507812 -12.628906 9.625 -12.421875 C 10.738281 -12.222656 11.910156 -12.125 13.140625 -12.125 C 14.960938 -12.125 16.3125 -12.347656 17.1875 -12.796875 C 18.070312 -13.242188 18.515625 -14.050781 18.515625 -15.21875 C 18.515625 -16.300781 18.101562 -17.242188 17.28125 -18.046875 C 16.46875 -18.847656 15.101562 -19.25 13.1875 -19.25 Z M 13.1875 -19.25 "/></g></g><g style="fill:rgb(0%,11.369324%,26.669312%);fill-opacity:1;"><g transform="translate(186.683708, 229.5358)"><path style="stroke:none;" d=""/></g></g><g style="fill:rgb(0%,59.21936%,100%);fill-opacity:1;"><g transform="translate(196.35168, 229.5358)"><path style="stroke:none;" d="M 13.515625 -8.515625 C 12.429688 -8.515625 11.296875 -8.597656 10.109375 -8.765625 C 8.921875 -8.941406 7.632812 -9.304688 6.25 -9.859375 C 6.53125 -7.972656 7.304688 -6.550781 8.578125 -5.59375 C 9.859375 -4.644531 11.703125 -4.171875 14.109375 -4.171875 C 14.972656 -4.171875 15.753906 -4.222656 16.453125 -4.328125 C 17.148438 -4.429688 17.757812 -4.550781 18.28125 -4.6875 C 18.800781 -4.832031 19.257812 -4.957031 19.65625 -5.0625 C 20.0625 -5.175781 20.4375 -5.234375 20.78125 -5.234375 C 21.207031 -5.234375 21.617188 -5.097656 22.015625 -4.828125 C 22.421875 -4.566406 22.625 -4.128906 22.625 -3.515625 C 22.625 -2.742188 22.304688 -2.109375 21.671875 -1.609375 C 21.046875 -1.117188 20.273438 -0.726562 19.359375 -0.4375 C 18.453125 -0.144531 17.488281 0.0507812 16.46875 0.15625 C 15.457031 0.269531 14.566406 0.328125 13.796875 0.328125 C 11.972656 0.328125 10.296875 0.0820312 8.765625 -0.40625 C 7.242188 -0.90625 5.925781 -1.65625 4.8125 -2.65625 C 3.695312 -3.664062 2.832031 -4.910156 2.21875 -6.390625 C 1.601562 -7.867188 1.296875 -9.597656 1.296875 -11.578125 C 1.296875 -13.484375 1.59375 -15.175781 2.1875 -16.65625 C 2.789062 -18.132812 3.617188 -19.382812 4.671875 -20.40625 C 5.722656 -21.425781 6.960938 -22.195312 8.390625 -22.71875 C 9.828125 -23.25 11.378906 -23.515625 13.046875 -23.515625 C 14.347656 -23.515625 15.609375 -23.34375 16.828125 -23 C 18.046875 -22.664062 19.125 -22.15625 20.0625 -21.46875 C 21 -20.789062 21.753906 -19.9375 22.328125 -18.90625 C 22.898438 -17.875 23.1875 -16.660156 23.1875 -15.265625 C 23.1875 -14.035156 22.953125 -12.988281 22.484375 -12.125 C 22.023438 -11.257812 21.367188 -10.5625 20.515625 -10.03125 C 19.671875 -9.507812 18.65625 -9.125 17.46875 -8.875 C 16.28125 -8.632812 14.960938 -8.515625 13.515625 -8.515625 Z M 13.1875 -19.25 C 12.351562 -19.25 11.550781 -19.148438 10.78125 -18.953125 C 10.007812 -18.753906 9.304688 -18.429688 8.671875 -17.984375 C 8.046875 -17.535156 7.515625 -16.945312 7.078125 -16.21875 C 6.648438 -15.5 6.359375 -14.597656 6.203125 -13.515625 C 7.367188 -12.992188 8.507812 -12.628906 9.625 -12.421875 C 10.738281 -12.222656 11.910156 -12.125 13.140625 -12.125 C 14.960938 -12.125 16.3125 -12.347656 17.1875 -12.796875 C 18.070312 -13.242188 18.515625 -14.050781 18.515625 -15.21875 C 18.515625 -16.300781 18.101562 -17.242188 17.28125 -18.046875 C 16.46875 -18.847656 15.101562 -19.25 13.1875 -19.25 Z M 13.1875 -19.25 "/></g></g><g style="fill:rgb(0%,59.21936%,100%);fill-opacity:1;"><g transform="translate(221.11009, 229.5358)"><path style="stroke:none;" d="M 13.328125 -1.84375 C 12.648438 -0.425781 11.832031 0.28125 10.875 0.28125 C 9.976562 0.28125 9.191406 -0.425781 8.515625 -1.84375 C 8.265625 -2.34375 7.984375 -2.96875 7.671875 -3.71875 C 7.367188 -4.476562 7.046875 -5.296875 6.703125 -6.171875 C 6.367188 -7.054688 6.015625 -7.960938 5.640625 -8.890625 C 5.273438 -9.816406 4.90625 -10.679688 4.53125 -11.484375 C 3.300781 -14.191406 2.34375 -16.316406 1.65625 -17.859375 C 0.976562 -19.398438 0.640625 -20.632812 0.640625 -21.5625 C 0.640625 -22.09375 0.800781 -22.523438 1.125 -22.859375 C 1.457031 -23.203125 1.898438 -23.375 2.453125 -23.375 C 2.796875 -23.375 3.160156 -23.234375 3.546875 -22.953125 C 3.929688 -22.671875 4.320312 -22.144531 4.71875 -21.375 C 5.894531 -19.03125 6.984375 -16.644531 7.984375 -14.21875 C 8.984375 -11.800781 9.960938 -9.34375 10.921875 -6.84375 C 11.878906 -9.34375 12.859375 -11.800781 13.859375 -14.21875 C 14.859375 -16.644531 15.945312 -19.03125 17.125 -21.375 C 17.519531 -22.144531 17.910156 -22.671875 18.296875 -22.953125 C 18.679688 -23.234375 19.046875 -23.375 19.390625 -23.375 C 19.941406 -23.375 20.378906 -23.203125 20.703125 -22.859375 C 21.035156 -22.523438 21.203125 -22.09375 21.203125 -21.5625 C 21.203125 -20.632812 20.859375 -19.398438 20.171875 -17.859375 C 19.492188 -16.316406 18.539062 -14.191406 17.3125 -11.484375 C 16.9375 -10.679688 16.5625 -9.816406 16.1875 -8.890625 C 15.820312 -7.960938 15.46875 -7.054688 15.125 -6.171875 C 14.789062 -5.296875 14.46875 -4.476562 14.15625 -3.71875 C 13.851562 -2.96875 13.578125 -2.34375 13.328125 -1.84375 Z M 13.328125 -1.84375 "/></g></g><g style="fill:rgb(0%,59.21936%,100%);fill-opacity:1;"><g transform="translate(243.50835, 229.5358)"><path style="stroke:none;" d="M 13.515625 -8.515625 C 12.429688 -8.515625 11.296875 -8.597656 10.109375 -8.765625 C 8.921875 -8.941406 7.632812 -9.304688 6.25 -9.859375 C 6.53125 -7.972656 7.304688 -6.550781 8.578125 -5.59375 C 9.859375 -4.644531 11.703125 -4.171875 14.109375 -4.171875 C 14.972656 -4.171875 15.753906 -4.222656 16.453125 -4.328125 C 17.148438 -4.429688 17.757812 -4.550781 18.28125 -4.6875 C 18.800781 -4.832031 19.257812 -4.957031 19.65625 -5.0625 C 20.0625 -5.175781 20.4375 -5.234375 20.78125 -5.234375 C 21.207031 -5.234375 21.617188 -5.097656 22.015625 -4.828125 C 22.421875 -4.566406 22.625 -4.128906 22.625 -3.515625 C 22.625 -2.742188 22.304688 -2.109375 21.671875 -1.609375 C 21.046875 -1.117188 20.273438 -0.726562 19.359375 -0.4375 C 18.453125 -0.144531 17.488281 0.0507812 16.46875 0.15625 C 15.457031 0.269531 14.566406 0.328125 13.796875 0.328125 C 11.972656 0.328125 10.296875 0.0820312 8.765625 -0.40625 C 7.242188 -0.90625 5.925781 -1.65625 4.8125 -2.65625 C 3.695312 -3.664062 2.832031 -4.910156 2.21875 -6.390625 C 1.601562 -7.867188 1.296875 -9.597656 1.296875 -11.578125 C 1.296875 -13.484375 1.59375 -15.175781 2.1875 -16.65625 C 2.789062 -18.132812 3.617188 -19.382812 4.671875 -20.40625 C 5.722656 -21.425781 6.960938 -22.195312 8.390625 -22.71875 C 9.828125 -23.25 11.378906 -23.515625 13.046875 -23.515625 C 14.347656 -23.515625 15.609375 -23.34375 16.828125 -23 C 18.046875 -22.664062 19.125 -22.15625 20.0625 -21.46875 C 21 -20.789062 21.753906 -19.9375 22.328125 -18.90625 C 22.898438 -17.875 23.1875 -16.660156 23.1875 -15.265625 C 23.1875 -14.035156 22.953125 -12.988281 22.484375 -12.125 C 22.023438 -11.257812 21.367188 -10.5625 20.515625 -10.03125 C 19.671875 -9.507812 18.65625 -9.125 17.46875 -8.875 C 16.28125 -8.632812 14.960938 -8.515625 13.515625 -8.515625 Z M 13.1875 -19.25 C 12.351562 -19.25 11.550781 -19.148438 10.78125 -18.953125 C 10.007812 -18.753906 9.304688 -18.429688 8.671875 -17.984375 C 8.046875 -17.535156 7.515625 -16.945312 7.078125 -16.21875 C 6.648438 -15.5 6.359375 -14.597656 6.203125 -13.515625 C 7.367188 -12.992188 8.507812 -12.628906 9.625 -12.421875 C 10.738281 -12.222656 11.910156 -12.125 13.140625 -12.125 C 14.960938 -12.125 16.3125 -12.347656 17.1875 -12.796875 C 18.070312 -13.242188 18.515625 -14.050781 18.515625 -15.21875 C 18.515625 -16.300781 18.101562 -17.242188 17.28125 -18.046875 C 16.46875 -18.847656 15.101562 -19.25 13.1875 -19.25 Z M 13.1875 -19.25 "/></g></g><g style="fill:rgb(0%,59.21936%,100%);fill-opacity:1;"><g transform="translate(268.26676, 229.5358)"><path style="stroke:none;" d="M 13.703125 -19.71875 C 12.554688 -19.71875 11.523438 -19.53125 10.609375 -19.15625 C 9.703125 -18.789062 8.679688 -18.238281 7.546875 -17.5 C 7.546875 -16.84375 7.546875 -15.890625 7.546875 -14.640625 C 7.546875 -13.398438 7.53125 -12.046875 7.5 -10.578125 C 7.46875 -9.109375 7.4375 -7.664062 7.40625 -6.25 C 7.375 -4.832031 7.3125 -3.644531 7.21875 -2.6875 C 7.15625 -2.070312 7.082031 -1.582031 7 -1.21875 C 6.925781 -0.863281 6.820312 -0.59375 6.6875 -0.40625 C 6.550781 -0.226562 6.363281 -0.113281 6.125 -0.0625 C 5.894531 -0.0195312 5.597656 0 5.234375 0 C 4.859375 0 4.554688 -0.0195312 4.328125 -0.0625 C 4.097656 -0.113281 3.90625 -0.222656 3.75 -0.390625 C 3.59375 -0.554688 3.46875 -0.8125 3.375 -1.15625 C 3.28125 -1.5 3.203125 -1.960938 3.140625 -2.546875 C 3.078125 -3.097656 3.023438 -3.835938 2.984375 -4.765625 C 2.941406 -5.691406 2.90625 -6.703125 2.875 -7.796875 C 2.84375 -8.890625 2.816406 -10 2.796875 -11.125 C 2.785156 -12.25 2.78125 -13.289062 2.78125 -14.25 C 2.78125 -15.820312 2.800781 -17.101562 2.84375 -18.09375 C 2.894531 -19.082031 2.976562 -19.960938 3.09375 -20.734375 C 3.28125 -22.023438 3.523438 -22.84375 3.828125 -23.1875 C 4.140625 -23.53125 4.5625 -23.703125 5.09375 -23.703125 C 5.863281 -23.703125 6.441406 -23.484375 6.828125 -23.046875 C 7.210938 -22.617188 7.453125 -21.910156 7.546875 -20.921875 C 8.679688 -21.910156 9.90625 -22.695312 11.21875 -23.28125 C 12.53125 -23.863281 13.878906 -24.15625 15.265625 -24.15625 C 16.597656 -24.15625 17.8125 -23.847656 18.90625 -23.234375 C 20 -22.617188 20.898438 -21.613281 21.609375 -20.21875 C 22.046875 -19.382812 22.367188 -18.46875 22.578125 -17.46875 C 22.796875 -16.46875 22.953125 -15.410156 23.046875 -14.296875 C 23.078125 -13.804688 23.109375 -13.320312 23.140625 -12.84375 C 23.171875 -12.363281 23.191406 -11.851562 23.203125 -11.3125 C 23.222656 -10.769531 23.234375 -10.160156 23.234375 -9.484375 C 23.234375 -8.804688 23.234375 -8.003906 23.234375 -7.078125 C 23.234375 -6.085938 23.21875 -5.160156 23.1875 -4.296875 C 23.15625 -3.441406 23.066406 -2.695312 22.921875 -2.0625 C 22.785156 -1.425781 22.546875 -0.929688 22.203125 -0.578125 C 21.867188 -0.222656 21.410156 -0.046875 20.828125 -0.046875 C 19.410156 -0.046875 18.671875 -0.722656 18.609375 -2.078125 C 18.609375 -2.171875 18.609375 -2.5625 18.609375 -3.25 C 18.609375 -3.945312 18.597656 -4.757812 18.578125 -5.6875 C 18.566406 -6.613281 18.550781 -7.554688 18.53125 -8.515625 C 18.519531 -9.472656 18.5 -10.257812 18.46875 -10.875 C 18.4375 -11.363281 18.394531 -11.894531 18.34375 -12.46875 C 18.300781 -13.039062 18.238281 -13.617188 18.15625 -14.203125 C 18.082031 -14.796875 17.984375 -15.359375 17.859375 -15.890625 C 17.734375 -16.429688 17.582031 -16.921875 17.40625 -17.359375 C 16.96875 -18.367188 16.425781 -19.015625 15.78125 -19.296875 C 15.132812 -19.578125 14.441406 -19.71875 13.703125 -19.71875 Z M 13.703125 -19.71875 "/></g></g><g style="fill:rgb(0%,59.21936%,100%);fill-opacity:1;"><g transform="translate(294.04327, 229.5358)"><path style="stroke:none;" d="M 6.796875 -3.015625 C 6.710938 -4.953125 6.660156 -7.253906 6.640625 -9.921875 C 6.628906 -12.597656 6.625 -15.628906 6.625 -19.015625 C 6.3125 -18.984375 5.945312 -18.96875 5.53125 -18.96875 C 5.113281 -18.96875 4.78125 -18.96875 4.53125 -18.96875 C 3.976562 -18.96875 3.476562 -18.984375 3.03125 -19.015625 C 2.582031 -19.046875 2.1875 -19.140625 1.84375 -19.296875 C 1.507812 -19.453125 1.25 -19.675781 1.0625 -19.96875 C 0.875 -20.257812 0.78125 -20.671875 0.78125 -21.203125 C 0.78125 -22.679688 1.894531 -23.421875 4.125 -23.421875 C 4.457031 -23.421875 4.867188 -23.421875 5.359375 -23.421875 C 5.859375 -23.421875 6.28125 -23.390625 6.625 -23.328125 C 6.625 -24.960938 6.648438 -26.269531 6.703125 -27.25 C 6.765625 -28.238281 6.878906 -29.003906 7.046875 -29.546875 C 7.222656 -30.085938 7.457031 -30.441406 7.75 -30.609375 C 8.039062 -30.785156 8.421875 -30.875 8.890625 -30.875 C 9.378906 -30.875 9.773438 -30.703125 10.078125 -30.359375 C 10.390625 -30.015625 10.628906 -29.582031 10.796875 -29.0625 C 10.972656 -28.539062 11.082031 -27.953125 11.125 -27.296875 C 11.175781 -26.648438 11.203125 -26.019531 11.203125 -25.40625 C 11.203125 -24.976562 11.191406 -24.585938 11.171875 -24.234375 C 11.160156 -23.878906 11.15625 -23.5625 11.15625 -23.28125 C 11.582031 -23.40625 12.023438 -23.472656 12.484375 -23.484375 C 12.953125 -23.503906 13.40625 -23.515625 13.84375 -23.515625 C 14.976562 -23.515625 15.851562 -23.335938 16.46875 -22.984375 C 17.09375 -22.628906 17.40625 -22.050781 17.40625 -21.25 C 17.40625 -20.75 17.296875 -20.351562 17.078125 -20.0625 C 16.859375 -19.769531 16.570312 -19.546875 16.21875 -19.390625 C 15.863281 -19.234375 15.445312 -19.128906 14.96875 -19.078125 C 14.488281 -19.035156 13.972656 -19.015625 13.421875 -19.015625 C 13.109375 -19.015625 12.75 -19.015625 12.34375 -19.015625 C 11.945312 -19.015625 11.582031 -19.046875 11.25 -19.109375 C 11.25 -17.472656 11.25 -15.976562 11.25 -14.625 C 11.25 -13.269531 11.234375 -11.96875 11.203125 -10.71875 C 11.171875 -9.46875 11.140625 -8.222656 11.109375 -6.984375 C 11.078125 -5.753906 11.03125 -4.441406 10.96875 -3.046875 C 10.9375 -2.304688 10.863281 -1.734375 10.75 -1.328125 C 10.644531 -0.929688 10.5 -0.625 10.3125 -0.40625 C 10.132812 -0.195312 9.925781 -0.0664062 9.6875 -0.015625 C 9.457031 0.0234375 9.191406 0.046875 8.890625 0.046875 C 8.328125 0.046875 7.851562 -0.144531 7.46875 -0.53125 C 7.082031 -0.914062 6.859375 -1.742188 6.796875 -3.015625 Z M 6.796875 -3.015625 "/></g></g></g></svg>